<svg xmlns="http://www.w3.org/2000/svg" width="1920" height="65.226" viewBox="0 0 1920 65.226">
  <path id="Subtraction_1" data-name="Subtraction 1" d="M.19,65.226H0V0H1920V63.577c-1.428-2.083-4.429-4.181-8.921-6.236a117.871,117.871,0,0,0-17.8-6.046c-14.536-3.91-34.873-7.748-60.446-11.405-25.151-3.6-55.643-7.061-90.628-10.295-34.7-3.207-74.154-6.218-117.263-8.949C1445.324,9.267,1209.353,3,960.5,3,832.4,3,708.027,4.64,590.822,7.874c-56.35,1.555-110.77,3.48-161.747,5.723-50.479,2.221-98.048,4.773-141.388,7.585-43.318,2.811-82.786,5.907-117.306,9.2-34.829,3.324-64.941,6.881-89.5,10.572-24.995,3.757-44.5,7.692-57.972,11.7a84.417,84.417,0,0,0-16,6.193c-3.824,2.1-6.085,4.25-6.72,6.38Z" transform="translate(0)" fill="#fff"/>
</svg>
